<?xml version="1.0" standalone="no"?>
<!DOCTYPE svg PUBLIC "-//W3C//DTD SVG 20010904//EN"
 "http://www.w3.org/TR/2001/REC-SVG-20010904/DTD/svg10.dtd">
<svg version="1.0" xmlns="http://www.w3.org/2000/svg"
 width="370.000000pt" height="300.000000pt" viewBox="0 0 370.000000 300.000000"
 preserveAspectRatio="xMidYMid meet">

<g transform="translate(0.000000,300.000000) scale(0.100000,-0.100000)"
fill="#000000" stroke="none">
<path d="M1398 1987 l-538 -451 0 -341 c0 -440 10 -487 129 -605 63 -64 138
-103 225 -119 83 -15 1206 -15 1278 0 170 36 301 167 337 337 15 73 15 1210 0
1284 -36 172 -164 301 -337 337 -31 6 -156 11 -305 10 l-252 0 -537 -452z
m542 105 c5 -40 8 -43 65 -71 70 -33 146 -109 178 -179 17 -36 22 -66 22 -132
0 -98 -18 -157 -72 -226 l-34 -45 21 -57 21 -56 -23 -18 c-31 -24 -107 -53
-116 -44 -3 4 -14 26 -22 49 l-15 41 -114 0 -114 0 -28 -79 c-16 -43 -26 -82
-22 -86 11 -10 119 -29 167 -29 113 1 250 51 342 126 30 24 59 44 66 44 19 0
88 -72 88 -91 0 -15 -48 -59 -123 -112 -17 -12 -16 -18 18 -114 l37 -102 -44
-73 c-25 -40 -50 -73 -57 -73 -8 0 -34 58 -63 140 -28 77 -51 141 -52 142 -1
2 -34 -4 -72 -12 -88 -19 -200 -19 -288 0 -38 8 -72 13 -74 10 -2 -2 -26 -66
-52 -142 -27 -80 -53 -139 -61 -140 -8 -2 -33 30 -57 73 l-44 76 37 101 36
101 -28 21 c-15 11 -48 39 -73 62 l-45 42 45 45 c24 26 48 46 53 46 5 0 27
-16 49 -36 22 -20 44 -32 48 -27 4 4 20 45 35 91 l27 82 -31 39 c-58 73 -76
126 -76 226 0 71 5 100 22 138 32 70 113 150 183 181 58 26 60 28 60 65 0 21
3 41 7 45 4 4 43 5 88 4 l80 -3 5 -43z"/>
<path d="M1765 1886 c-42 -21 -59 -36 -89 -80 -51 -76 -29 -202 47 -260 136
-104 330 -10 330 160 0 64 -32 123 -86 161 -32 22 -53 28 -106 30 -43 2 -76
-2 -96 -11z"/>
</g>
</svg>
